<svg xmlns="http://www.w3.org/2000/svg" width="180" height="180" viewBox="0 0 180 180" fill="none">
  <rect width="180" height="180" rx="90" fill="#22C55E"/>
  <path d="M90 40C90 40 45 60 45 100C45 120 60 140 90 140C120 140 135 120 135 100C135 60 90 40 90 40Z" fill="white"/>
  <path d="M90 40C90 40 90 80 90 100M90 40C90 40 45 60 45 100C45 120 60 140 90 140C120 140 135 120 135 100C135 60 90 40 90 40Z" stroke="#22C55E" stroke-width="8" stroke-linecap="round" stroke-linejoin="round"/>
  <path d="M70 80C70 80 80 90 90 100C100 110 110 120 110 120" stroke="#22C55E" stroke-width="8" stroke-linecap="round" stroke-linejoin="round"/>
  <path d="M110 80C110 80 100 90 90 100C80 110 70 120 70 120" stroke="#22C55E" stroke-width="8" stroke-linecap="round" stroke-linejoin="round"/>
</svg>

